<svg width="91.4621" height="72.6301" viewBox="0 0 24.1994 19.2167" xml:space="preserve" xmlns="http://www.w3.org/2000/svg"><g style="fill:#fff;stroke-width:1.02357" aria-label="{零}"><path d="M100.2326 81.851h-.6022q-.3993 0-.7396-.144-.3339-.1374-.576-.3796-.2357-.2422-.3732-.5826-.1309-.3404-.1309-.7462v-2.7754q0-1.0997-1.224-1.0997v-.733q1.224 0 1.224-1.0997V71.476q0-.4058.131-.7397.1374-.3338.373-.576.2422-.2422.576-.373.3404-.1376.7397-.1376h.6022v.7266h-.6022q-1.1128 0-1.1128 1.0997v2.8147q0 .2225-.085.4647-.0851.2422-.2357.4516-.144.2095-.3535.3666-.2094.1506-.4516.1898.2422.0393.4451.1899.203.144.3535.3534.157.2095.2422.4517.085.2356.085.4647v2.7754q0 1.1128 1.1128 1.1128h.6022z" transform="translate(-96.5867 -62.6343)"/><path style="font-size:11.9944px;letter-spacing:1.2409px" d="M108.2527 72.591v1.8352h.12c.3957 0 .6476-.168.6476-.2279v-1.6072h3.9342c-.132.4198-.3119.9595-.4678 1.3073l.1799.084c.3838-.3238.8756-.8756 1.1635-1.2594.2279-.012.3718-.036.4557-.12l-.8755-.8396-.4798.4798h-3.9102v-1.0195h3.8502c.156 0 .2759-.06.3119-.192-.4078-.3598-1.0435-.8155-1.0435-.8155l-.5638.6597h-7.1966l.108.3478h3.7662v1.0195h-3.7303c-.036-.144-.084-.2879-.144-.4558l-.2038.012c.108.6717-.192 1.3314-.5997 1.5713-.252.144-.4079.3718-.312.6357.132.2519.5159.2519.8037.072.3119-.228.5877-.7437.5158-1.4873zm1.3673 2.255h2.5069v-.3478H109.62zm0-1.4273v.3478h2.279v-.3478zm-2.075-.024h-2.351v.3478h2.351zm-2.5788 1.4273h2.5668v-.3598h-2.5668zm5.9012 2.9146h-5.8172l.108.3599h5.5173c-.4797.4678-1.1514 1.0795-1.6552 1.5353-.6357-.24-1.4993-.4438-2.6508-.5158l-.084.18c1.1755.3717 2.8907 1.1994 3.6583 1.859.7077.096.7677-.7676-.6597-1.4033.8157-.4678 1.8832-1.1155 2.4829-1.5353.2639-.012.4078-.024.5038-.12l-.8756-.8395zm-3.0345-1.5232c.3358.3238.7796.8875.9235 1.3074.6717.4677 1.2714-.8157-.7916-1.3914zm.5637-1.7632c-.9596 1.1275-3.0706 2.5668-5.1576 3.3224l.108.18c2.123-.5158 4.078-1.5953 5.3495-2.6148 1.1154 1.2114 2.9506 2.075 4.7857 2.4108.06-.3238.3599-.5397.7437-.6477l.024-.1559c-1.7992-.132-4.21-.7676-5.3255-1.7871.3478.036.5037-.036.5637-.156z" transform="translate(-96.5867 -62.6343)"/><path d="M120.786 76.1235q-1.2044 0-1.2044 1.0997v2.7885q0 .4058-.1374.7397-.131.3338-.3797.5825-.2487.2488-.5826.3797-.3338.1374-.733.1374h-.6088v-.7396h.6087q1.0931 0 1.0931-1.0997v-2.7885q0-.229.0851-.4713.0916-.2487.2422-.4582.1571-.2094.3666-.3469.2094-.144.4516-.1833-.2422-.0523-.4582-.1963-.216-.1506-.3665-.36-.144-.2095-.2357-.4517-.085-.2422-.085-.4647V71.476q0-1.0997-1.0932-1.0997h-.6087v-.7266h.6087q.3993 0 .7331.144.3339.1375.5826.3797.2487.2422.3796.576.1375.3339.1375.7266v2.8147q0 1.0996 1.2044 1.0996z" transform="translate(-96.5867 -62.6343)"/></g><path style="fill:#fff;fill-opacity:0;stroke:#fff;stroke-width:.218527" d="M110.9094 64.83a2.0865 2.0865 0 0 1-2.0865 2.0866 2.0865 2.0865 0 0 1-2.0865-2.0865 2.0865 2.0865 0 0 1 2.0865-2.0865 2.0865 2.0865 0 0 1 2.0865 2.0865z" fill="none" transform="translate(-96.5867 -62.6343)"/></svg>